# OBJ file generated by RenderRex
v 0.5 -0.5 0
v 0.5 0.5 0
v 0.496057 -0.5 0.0626666
v 0.496057 0.5 0.0626666
v 0.484292 -0.5 0.124345
v 0.484292 0.5 0.124345
v 0.464888 -0.5 0.184062
v 0.464888 0.5 0.184062
v 0.438153 -0.5 0.240877
v 0.438153 0.5 0.240877
v 0.404509 -0.5 0.293893
v 0.404509 0.5 0.293893
v 0.364484 -0.5 0.342274
v 0.364484 0.5 0.342274
v 0.318712 -0.5 0.385257
v 0.318712 0.5 0.385257
v 0.267913 -0.5 0.422164
v 0.267913 0.5 0.422164
v 0.21289 -0.5 0.452414
v 0.21289 0.5 0.452414
v 0.154508 -0.5 0.475528
v 0.154508 0.5 0.475528
v 0.0936906 -0.5 0.491144
v 0.0936906 0.5 0.491144
v 0.0313952 -0.5 0.499013
v 0.0313952 0.5 0.499013
v -0.0313953 -0.5 0.499013
v -0.0313953 0.5 0.499013
v -0.0936907 -0.5 0.491144
v -0.0936907 0.5 0.491144
v -0.154509 -0.5 0.475528
v -0.154509 0.5 0.475528
v -0.21289 -0.5 0.452413
v -0.21289 0.5 0.452413
v -0.267913 -0.5 0.422164
v -0.267913 0.5 0.422164
v -0.318712 -0.5 0.385257
v -0.318712 0.5 0.385257
v -0.364484 -0.5 0.342274
v -0.364484 0.5 0.342274
v -0.404509 -0.5 0.293893
v -0.404509 0.5 0.293893
v -0.438153 -0.5 0.240877
v -0.438153 0.5 0.240877
v -0.464888 -0.5 0.184062
v -0.464888 0.5 0.184062
v -0.484292 -0.5 0.124345
v -0.484292 0.5 0.124345
v -0.496057 -0.5 0.0626666
v -0.496057 0.5 0.0626666
v -0.5 -0.5 -4.37114e-08
v -0.5 0.5 -4.37114e-08
v -0.496057 -0.5 -0.0626667
v -0.496057 0.5 -0.0626667
v -0.484292 -0.5 -0.124345
v -0.484292 0.5 -0.124345
v -0.464888 -0.5 -0.184062
v -0.464888 0.5 -0.184062
v -0.438153 -0.5 -0.240877
v -0.438153 0.5 -0.240877
v -0.404508 -0.5 -0.293893
v -0.404508 0.5 -0.293893
v -0.364484 -0.5 -0.342274
v -0.364484 0.5 -0.342274
v -0.318712 -0.5 -0.385257
v -0.318712 0.5 -0.385257
v -0.267913 -0.5 -0.422164
v -0.267913 0.5 -0.422164
v -0.21289 -0.5 -0.452414
v -0.21289 0.5 -0.452414
v -0.154508 -0.5 -0.475528
v -0.154508 0.5 -0.475528
v -0.0936907 -0.5 -0.491144
v -0.0936907 0.5 -0.491144
v -0.0313953 -0.5 -0.499013
v -0.0313953 0.5 -0.499013
v 0.0313953 -0.5 -0.499013
v 0.0313953 0.5 -0.499013
v 0.0936907 -0.5 -0.491144
v 0.0936907 0.5 -0.491144
v 0.154509 -0.5 -0.475528
v 0.154509 0.5 -0.475528
v 0.21289 -0.5 -0.452413
v 0.21289 0.5 -0.452413
v 0.267913 -0.5 -0.422164
v 0.267913 0.5 -0.422164
v 0.318712 -0.5 -0.385257
v 0.318712 0.5 -0.385257
v 0.364484 -0.5 -0.342273
v 0.364484 0.5 -0.342273
v 0.404509 -0.5 -0.293892
v 0.404509 0.5 -0.293892
v 0.438153 -0.5 -0.240877
v 0.438153 0.5 -0.240877
v 0.464888 -0.5 -0.184062
v 0.464888 0.5 -0.184062
v 0.484292 -0.5 -0.124345
v 0.484292 0.5 -0.124345
v 0.496057 -0.5 -0.0626663
v 0.496057 0.5 -0.0626663
vn 1 0 0
vn 1 0 0
vn 0.992115 0 0.125333
vn 0.992115 0 0.125333
vn 0.968583 0 0.24869
vn 0.968583 0 0.24869
vn 0.929776 0 0.368125
vn 0.929776 0 0.368125
vn 0.876307 0 0.481754
vn 0.876307 0 0.481754
vn 0.809017 0 0.587785
vn 0.809017 0 0.587785
vn 0.728969 0 0.684547
vn 0.728969 0 0.684547
vn 0.637424 0 0.770513
vn 0.637424 0 0.770513
vn 0.535827 0 0.844328
vn 0.535827 0 0.844328
vn 0.425779 0 0.904827
vn 0.425779 0 0.904827
vn 0.309017 0 0.951057
vn 0.309017 0 0.951057
vn 0.187381 0 0.982287
vn 0.187381 0 0.982287
vn 0.0627905 0 0.998027
vn 0.0627905 0 0.998027
vn -0.0627906 0 0.998027
vn -0.0627906 0 0.998027
vn -0.187381 0 0.982287
vn -0.187381 0 0.982287
vn -0.309017 0 0.951057
vn -0.309017 0 0.951057
vn -0.425779 0 0.904827
vn -0.425779 0 0.904827
vn -0.535827 0 0.844328
vn -0.535827 0 0.844328
vn -0.637424 0 0.770513
vn -0.637424 0 0.770513
vn -0.728969 0 0.684547
vn -0.728969 0 0.684547
vn -0.809017 0 0.587785
vn -0.809017 0 0.587785
vn -0.876307 0 0.481754
vn -0.876307 0 0.481754
vn -0.929777 0 0.368124
vn -0.929777 0 0.368124
vn -0.968583 0 0.24869
vn -0.968583 0 0.24869
vn -0.992115 0 0.125333
vn -0.992115 0 0.125333
vn -1 0 -8.74228e-08
vn -1 0 -8.74228e-08
vn -0.992115 0 -0.125333
vn -0.992115 0 -0.125333
vn -0.968583 0 -0.24869
vn -0.968583 0 -0.24869
vn -0.929776 0 -0.368125
vn -0.929776 0 -0.368125
vn -0.876307 0 -0.481754
vn -0.876307 0 -0.481754
vn -0.809017 0 -0.587785
vn -0.809017 0 -0.587785
vn -0.728969 0 -0.684547
vn -0.728969 0 -0.684547
vn -0.637424 0 -0.770513
vn -0.637424 0 -0.770513
vn -0.535827 0 -0.844328
vn -0.535827 0 -0.844328
vn -0.425779 0 -0.904827
vn -0.425779 0 -0.904827
vn -0.309017 0 -0.951057
vn -0.309017 0 -0.951057
vn -0.187381 0 -0.982287
vn -0.187381 0 -0.982287
vn -0.0627905 0 -0.998027
vn -0.0627905 0 -0.998027
vn 0.0627906 0 -0.998027
vn 0.0627906 0 -0.998027
vn 0.187381 0 -0.982287
vn 0.187381 0 -0.982287
vn 0.309017 0 -0.951056
vn 0.309017 0 -0.951056
vn 0.425779 0 -0.904827
vn 0.425779 0 -0.904827
vn 0.535827 0 -0.844328
vn 0.535827 0 -0.844328
vn 0.637424 0 -0.770513
vn 0.637424 0 -0.770513
vn 0.728969 0 -0.684547
vn 0.728969 0 -0.684547
vn 0.809017 0 -0.587785
vn 0.809017 0 -0.587785
vn 0.876307 0 -0.481754
vn 0.876307 0 -0.481754
vn 0.929777 0 -0.368124
vn 0.929777 0 -0.368124
vn 0.968583 0 -0.24869
vn 0.968583 0 -0.24869
vn 0.992115 0 -0.125333
vn 0.992115 0 -0.125333
vn 0 -1 0
vn 0 1 0
f 2//2 4//4 3//3
f 2//2 3//3 1//1
f 4//4 6//6 5//5
f 4//4 5//5 3//3
f 6//6 8//8 7//7
f 6//6 7//7 5//5
f 8//8 10//10 9//9
f 8//8 9//9 7//7
f 10//10 12//12 11//11
f 10//10 11//11 9//9
f 12//12 14//14 13//13
f 12//12 13//13 11//11
f 14//14 16//16 15//15
f 14//14 15//15 13//13
f 16//16 18//18 17//17
f 16//16 17//17 15//15
f 18//18 20//20 19//19
f 18//18 19//19 17//17
f 20//20 22//22 21//21
f 20//20 21//21 19//19
f 22//22 24//24 23//23
f 22//22 23//23 21//21
f 24//24 26//26 25//25
f 24//24 25//25 23//23
f 26//26 28//28 27//27
f 26//26 27//27 25//25
f 28//28 30//30 29//29
f 28//28 29//29 27//27
f 30//30 32//32 31//31
f 30//30 31//31 29//29
f 32//32 34//34 33//33
f 32//32 33//33 31//31
f 34//34 36//36 35//35
f 34//34 35//35 33//33
f 36//36 38//38 37//37
f 36//36 37//37 35//35
f 38//38 40//40 39//39
f 38//38 39//39 37//37
f 40//40 42//42 41//41
f 40//40 41//41 39//39
f 42//42 44//44 43//43
f 42//42 43//43 41//41
f 44//44 46//46 45//45
f 44//44 45//45 43//43
f 46//46 48//48 47//47
f 46//46 47//47 45//45
f 48//48 50//50 49//49
f 48//48 49//49 47//47
f 50//50 52//52 51//51
f 50//50 51//51 49//49
f 52//52 54//54 53//53
f 52//52 53//53 51//51
f 54//54 56//56 55//55
f 54//54 55//55 53//53
f 56//56 58//58 57//57
f 56//56 57//57 55//55
f 58//58 60//60 59//59
f 58//58 59//59 57//57
f 60//60 62//62 61//61
f 60//60 61//61 59//59
f 62//62 64//64 63//63
f 62//62 63//63 61//61
f 64//64 66//66 65//65
f 64//64 65//65 63//63
f 66//66 68//68 67//67
f 66//66 67//67 65//65
f 68//68 70//70 69//69
f 68//68 69//69 67//67
f 70//70 72//72 71//71
f 70//70 71//71 69//69
f 72//72 74//74 73//73
f 72//72 73//73 71//71
f 74//74 76//76 75//75
f 74//74 75//75 73//73
f 76//76 78//78 77//77
f 76//76 77//77 75//75
f 78//78 80//80 79//79
f 78//78 79//79 77//77
f 80//80 82//82 81//81
f 80//80 81//81 79//79
f 82//82 84//84 83//83
f 82//82 83//83 81//81
f 84//84 86//86 85//85
f 84//84 85//85 83//83
f 86//86 88//88 87//87
f 86//86 87//87 85//85
f 88//88 90//90 89//89
f 88//88 89//89 87//87
f 90//90 92//92 91//91
f 90//90 91//91 89//89
f 92//92 94//94 93//93
f 92//92 93//93 91//91
f 94//94 96//96 95//95
f 94//94 95//95 93//93
f 96//96 98//98 97//97
f 96//96 97//97 95//95
f 98//98 100//100 99//99
f 98//98 99//99 97//97
f 100//100 2//2 1//1
f 100//100 1//1 99//99
f 1//101 3//101 5//101
f 1//101 5//101 7//101
f 1//101 7//101 9//101
f 1//101 9//101 11//101
f 1//101 11//101 13//101
f 1//101 13//101 15//101
f 1//101 15//101 17//101
f 1//101 17//101 19//101
f 1//101 19//101 21//101
f 1//101 21//101 23//101
f 1//101 23//101 25//101
f 1//101 25//101 27//101
f 1//101 27//101 29//101
f 1//101 29//101 31//101
f 1//101 31//101 33//101
f 1//101 33//101 35//101
f 1//101 35//101 37//101
f 1//101 37//101 39//101
f 1//101 39//101 41//101
f 1//101 41//101 43//101
f 1//101 43//101 45//101
f 1//101 45//101 47//101
f 1//101 47//101 49//101
f 1//101 49//101 51//101
f 1//101 51//101 53//101
f 1//101 53//101 55//101
f 1//101 55//101 57//101
f 1//101 57//101 59//101
f 1//101 59//101 61//101
f 1//101 61//101 63//101
f 1//101 63//101 65//101
f 1//101 65//101 67//101
f 1//101 67//101 69//101
f 1//101 69//101 71//101
f 1//101 71//101 73//101
f 1//101 73//101 75//101
f 1//101 75//101 77//101
f 1//101 77//101 79//101
f 1//101 79//101 81//101
f 1//101 81//101 83//101
f 1//101 83//101 85//101
f 1//101 85//101 87//101
f 1//101 87//101 89//101
f 1//101 89//101 91//101
f 1//101 91//101 93//101
f 1//101 93//101 95//101
f 1//101 95//101 97//101
f 1//101 97//101 99//101
f 100//102 98//102 96//102
f 100//102 96//102 94//102
f 100//102 94//102 92//102
f 100//102 92//102 90//102
f 100//102 90//102 88//102
f 100//102 88//102 86//102
f 100//102 86//102 84//102
f 100//102 84//102 82//102
f 100//102 82//102 80//102
f 100//102 80//102 78//102
f 100//102 78//102 76//102
f 100//102 76//102 74//102
f 100//102 74//102 72//102
f 100//102 72//102 70//102
f 100//102 70//102 68//102
f 100//102 68//102 66//102
f 100//102 66//102 64//102
f 100//102 64//102 62//102
f 100//102 62//102 60//102
f 100//102 60//102 58//102
f 100//102 58//102 56//102
f 100//102 56//102 54//102
f 100//102 54//102 52//102
f 100//102 52//102 50//102
f 100//102 50//102 48//102
f 100//102 48//102 46//102
f 100//102 46//102 44//102
f 100//102 44//102 42//102
f 100//102 42//102 40//102
f 100//102 40//102 38//102
f 100//102 38//102 36//102
f 100//102 36//102 34//102
f 100//102 34//102 32//102
f 100//102 32//102 30//102
f 100//102 30//102 28//102
f 100//102 28//102 26//102
f 100//102 26//102 24//102
f 100//102 24//102 22//102
f 100//102 22//102 20//102
f 100//102 20//102 18//102
f 100//102 18//102 16//102
f 100//102 16//102 14//102
f 100//102 14//102 12//102
f 100//102 12//102 10//102
f 100//102 10//102 8//102
f 100//102 8//102 6//102
f 100//102 6//102 4//102
f 100//102 4//102 2//102
